<svg xmlns="http://www.w3.org/2000/svg" version="1.1" xmlns:xlink="http://www.w3.org/1999/xlink" xmlns:svgjs="http://svgjs.dev/svgjs" width="1000" height="257" viewBox="0 0 1000 257"><g transform="matrix(1,0,0,1,-0.6060603290449649,0.2703709065415296)"><svg viewBox="0 0 396 102" data-background-color="#fffcfc" preserveAspectRatio="xMidYMid meet" height="257" width="1000" xmlns="http://www.w3.org/2000/svg" xmlns:xlink="http://www.w3.org/1999/xlink"><g id="tight-bounds" transform="matrix(1,0,0,1,0.24000010969820096,-0.10730454748724583)"><svg viewBox="0 0 395.52 102.21461128860489" height="102.21461128860489" width="395.52"><g><svg viewBox="0 0 395.52 102.21461128860489" height="102.21461128860489" width="395.52"><g><svg viewBox="0 0 395.52 102.21461128860489" height="102.21461128860489" width="395.52"><g id="textblocktransform"><svg viewBox="0 0 395.52 102.21461128860489" height="102.21461128860489" width="395.52" id="textblock"><g><svg viewBox="0 0 395.52 102.21461128860489" height="102.21461128860489" width="395.52"><g transform="matrix(1,0,0,1,0,0)"><svg width="395.52" viewBox="1.1700000762939453 -35.54999923706055 137.54000854492188 35.54999923706055" height="102.21461128860489" data-palette-color="#000000"><path d="M16.5 0L1.17 0 1.17-4.64 4.91-5.4 4.91-30.13 1.17-30.88 1.17-35.55 16.5-35.55 16.5-30.88 12.77-30.13 12.77-20.51 26.46-20.51 26.46-30.13 22.73-30.88 22.73-35.55 26.46-35.55 34.3-35.55 38.04-35.55 38.04-30.88 34.3-30.13 34.3-5.4 38.04-4.64 38.04 0 22.73 0 22.73-4.64 26.46-5.4 26.46-14.48 12.77-14.48 12.77-5.4 16.5-4.64 16.5 0ZM65.62 0L50.31 0 50.31-4.64 54.05-5.4 54.05-11.96 43.63-30.4 40.06-30.88 40.06-35.55 54.83-35.55 54.83-30.88 52.29-30.49 57.69-19.92 58.23-18.75 58.42-18.75 58.98-19.87 65.11-30.49 61.33-30.88 61.33-35.55 75.8-35.55 75.8-30.88 72.19-30.4 61.86-12.57 61.86-5.4 65.62-4.64 65.62 0ZM93.06 0L77.73 0 77.73-4.64 81.46-5.4 81.46-30.13 77.73-30.88 77.73-35.55 81.46-35.55 94.82-35.55Q98.99-35.55 102.03-34.08 105.07-32.62 106.72-30.03 108.37-27.44 108.37-23.97L108.37-23.97Q108.37-20.51 106.72-17.92 105.07-15.33 102.03-13.89 98.99-12.45 94.82-12.45L94.82-12.45 89.33-12.45 89.33-5.4 93.06-4.64 93.06 0ZM89.33-29.54L89.33-18.48 94.82-18.48Q97.63-18.48 99.07-20.01 100.51-21.53 100.51-23.93L100.51-23.93Q100.51-26.37 99.07-27.95 97.63-29.54 94.82-29.54L94.82-29.54 89.33-29.54ZM138.71 0L110.27 0 110.27-4.64 114.01-5.4 114.01-30.13 110.27-30.88 110.27-35.55 138.27-35.55 138.27-25.61 132.29-25.61 132.02-29.52 121.87-29.52 121.87-21.39 133.54-21.39 133.54-15.36 121.87-15.36 121.87-6.03 132.56-6.03 132.83-10.08 138.71-10.08 138.71 0Z" opacity="1" transform="matrix(1,0,0,1,0,0)" fill="#000000" class="wordmark-text-0" data-fill-palette-color="primary" id="text-0"></path></svg></g></svg></g></svg></g></svg></g></svg></g><defs></defs></svg><rect width="395.52" height="102.21461128860489" fill="none" stroke="none" visibility="hidden"></rect></g></svg></g></svg>